<?xml version="1.0" encoding="UTF-8" standalone="no"?>
<!DOCTYPE svg PUBLIC "-//W3C//DTD SVG 1.1//EN" "http://www.w3.org/Graphics/SVG/1.1/DTD/svg11.dtd">
<svg width="100%" height="100%" viewBox="0 0 842 596" version="1.1" xmlns="http://www.w3.org/2000/svg" xmlns:xlink="http://www.w3.org/1999/xlink" xml:space="preserve" xmlns:serif="http://www.serif.com/" style="fill-rule:evenodd;clip-rule:evenodd;stroke-linejoin:round;stroke-miterlimit:2;">
    <g transform="matrix(4.75727,0,0,4.75727,183.032,59.7843)">
        <path d="M21.087,48.152C21.195,48.267 21.347,48.333 21.505,48.333L78.498,48.333C78.814,48.333 79.068,48.078 79.068,47.763C79.068,47.734 79.066,47.705 79.062,47.677L76.833,14.125C76.813,13.825 76.563,13.592 76.263,13.592L23.736,13.592C23.435,13.592 23.186,13.825 23.166,14.125L20.935,47.725C20.924,47.882 20.979,48.037 21.087,48.152ZM24.271,14.734L75.73,14.734L77.885,47.191L22.115,47.191L24.271,14.734Z" style="fill:white;fill-rule:nonzero;"/>
        <path d="M94.627,86.578L86.197,61.956L85.75,55.216C85.738,55.062 85.699,54.911 85.631,54.773L84.067,51.567L81.305,9.968C81.28,9.583 81.069,9.235 80.741,9.032L74.502,5.197C74.314,5.082 74.099,5.021 73.879,5.021L26.122,5.021C25.902,5.021 25.686,5.082 25.499,5.197L19.261,9.032C18.933,9.234 18.723,9.583 18.697,9.968L15.934,51.567L14.37,54.773C14.303,54.912 14.263,55.062 14.252,55.216L13.805,61.956L5.375,86.578C5.291,86.824 5.289,87.091 5.371,87.337L7.628,94.164C7.789,94.651 8.244,94.98 8.758,94.98L91.245,94.98C91.759,94.98 92.214,94.651 92.374,94.164L94.632,87.337C94.713,87.091 94.711,86.824 94.627,86.578ZM81.92,52.593L83.391,55.607L83.78,61.478L16.221,61.478L16.611,55.607L18.082,52.593L81.92,52.593ZM15.994,62.906L84.006,62.906L91.998,86.25L8.002,86.25L15.994,62.906ZM21.03,10.738L26.459,7.401L73.541,7.401L78.971,10.738L81.655,51.165L18.346,51.165L21.03,10.738ZM90.385,92.601L9.617,92.601L7.989,87.678L92.011,87.678L90.385,92.601Z" style="fill:white;fill-rule:nonzero;"/>
        <path d="M60.489,77.27C60.488,77.265 60.488,77.26 60.488,77.256L59.46,66.242C59.425,65.875 59.117,65.595 58.749,65.595L17.923,65.595C17.617,65.595 17.346,65.788 17.247,66.077L11.585,82.616C11.51,82.834 11.546,83.075 11.68,83.262C11.814,83.449 12.031,83.561 12.261,83.561L60.292,83.561C60.493,83.561 60.685,83.476 60.819,83.328C60.955,83.18 61.021,82.98 61.003,82.781L60.489,77.27ZM33.68,82.133L34.316,78.048L39.439,78.048L39.057,82.133L33.68,82.133ZM26.87,82.133L27.76,78.048L32.87,78.048L32.234,82.133L26.87,82.133ZM20.063,82.133L21.208,78.048L26.299,78.048L25.408,82.133L20.063,82.133ZM16.545,72.535L21.27,72.535L20.125,76.62L15.146,76.62L16.545,72.535ZM22.752,72.535L27.5,72.535L26.609,76.62L21.607,76.62L22.752,72.535ZM28.701,67.022L27.81,71.107L23.152,71.107L24.296,67.022L28.701,67.022ZM34.586,67.022L33.95,71.107L29.272,71.107L30.162,67.022L34.586,67.022ZM40.468,67.022L40.086,71.107L35.396,71.107L36.031,67.022L40.468,67.022ZM46.348,67.022L46.22,71.107L41.521,71.107L41.903,67.022L46.348,67.022ZM47.776,67.022L52.224,67.022L52.351,71.107L47.648,71.107L47.776,67.022ZM35.173,72.535L39.953,72.535L39.571,76.62L34.537,76.62L35.173,72.535ZM33.092,76.62L28.071,76.62L28.961,72.535L33.728,72.535L33.092,76.62ZM41.388,72.535L46.176,72.535L46.049,76.62L41.006,76.62L41.388,72.535ZM40.872,78.048L46.004,78.048L45.877,82.133L40.491,82.133L40.872,78.048ZM47.433,78.048L52.568,78.048L52.695,82.133L47.306,82.133L47.433,78.048ZM47.478,76.62L47.605,72.535L52.396,72.535L52.523,76.62L47.478,76.62ZM53.824,72.535L58.613,72.535L58.994,76.62L53.951,76.62L53.824,72.535ZM58.479,71.107L53.78,71.107L53.653,67.022L58.098,67.022L58.479,71.107ZM18.433,67.022L22.814,67.022L21.669,71.107L17.034,71.107L18.433,67.022ZM14.658,78.048L19.724,78.048L18.58,82.133L13.26,82.133L14.658,78.048ZM54.123,82.133L53.996,78.048L59.128,78.048L59.509,82.133L54.123,82.133Z" style="fill:white;fill-rule:nonzero;"/>
        <path d="M88.398,82.566L82.753,66.077C82.653,65.788 82.382,65.595 82.077,65.595L70.413,65.595C70.197,65.595 69.992,65.693 69.857,65.861C69.721,66.03 69.669,66.25 69.715,66.462L73.318,83C73.39,83.328 73.68,83.563 74.016,83.563L87.741,83.563C88.136,83.563 88.456,83.243 88.456,82.849C88.457,82.747 88.436,82.652 88.398,82.566ZM72.5,72.535L77.248,72.535L78.393,76.62L73.391,76.62L72.5,72.535ZM78.732,72.535L83.455,72.535L84.853,76.62L79.874,76.62L78.732,72.535ZM82.967,71.107L78.332,71.107L77.186,67.022L81.568,67.022L82.967,71.107ZM75.704,67.022L76.849,71.107L72.19,71.107L71.3,67.022L75.704,67.022ZM73.701,78.048L78.793,78.048L79.938,82.133L74.592,82.133L73.701,78.048ZM81.42,82.133L80.275,78.048L85.341,78.048L86.739,82.133L81.42,82.133Z" style="fill:white;fill-rule:nonzero;"/>
        <path d="M31.689,10.617L68.31,10.617C68.625,10.617 68.881,10.362 68.881,10.047C68.881,9.732 68.625,9.476 68.31,9.476L31.689,9.476C31.374,9.476 31.118,9.732 31.118,10.047C31.118,10.362 31.374,10.617 31.689,10.617Z" style="fill:white;fill-rule:nonzero;"/>
        <path d="M31.689,55.865L68.31,55.865C68.625,55.865 68.881,55.609 68.881,55.294C68.881,54.979 68.625,54.724 68.31,54.724L31.689,54.724C31.374,54.724 31.118,54.979 31.118,55.294C31.118,55.609 31.374,55.865 31.689,55.865Z" style="fill:white;fill-rule:nonzero;"/>
        <path d="M64.399,17.252C59.628,16.91 54.784,16.737 50,16.737C45.217,16.737 40.372,16.91 35.599,17.252C33.32,17.424 31.169,19.495 30.903,21.779C30.213,27.959 30.213,33.967 30.903,40.149C31.17,42.429 33.32,44.502 35.602,44.672C40.373,45.014 45.217,45.188 50,45.188C54.783,45.188 59.628,45.014 64.401,44.672C66.68,44.501 68.831,42.429 69.097,40.145C69.787,33.966 69.787,27.958 69.097,21.776C68.831,19.495 66.681,17.424 64.399,17.252ZM67.68,39.983C67.491,41.601 65.909,43.128 64.297,43.249C59.56,43.588 54.75,43.76 50,43.76C45.251,43.76 40.44,43.588 35.706,43.249C34.091,43.128 32.51,41.602 32.321,39.987C31.643,33.915 31.643,28.01 32.321,21.941C32.509,20.323 34.092,18.797 35.703,18.676C40.44,18.336 45.251,18.164 50,18.164C54.75,18.164 59.56,18.336 64.295,18.675C65.909,18.797 67.49,20.322 67.679,21.938C68.356,28.011 68.356,33.915 67.68,39.983Z" style="fill:white;fill-rule:nonzero;"/>
    </g>
</svg>
