<?xml version="1.0" encoding="UTF-8" standalone="no"?>
<!DOCTYPE svg PUBLIC "-//W3C//DTD SVG 1.1//EN" "http://www.w3.org/Graphics/SVG/1.1/DTD/svg11.dtd">
<svg width="100%" height="100%" viewBox="0 0 842 596" version="1.1" xmlns="http://www.w3.org/2000/svg" xmlns:xlink="http://www.w3.org/1999/xlink" xml:space="preserve" xmlns:serif="http://www.serif.com/" style="fill-rule:evenodd;clip-rule:evenodd;stroke-linejoin:round;stroke-miterlimit:2;">
    <g transform="matrix(4.91516,0,0,4.91516,175.192,51.8922)">
        <path d="M87,75L13,75C10.8,75 9,76.8 9,79L9,87C9,89.2 10.8,91 13,91L87,91C89.2,91 91,89.2 91,87L91,79C91,76.8 89.2,75 87,75ZM49,85L17,85C15.9,85 15,84.1 15,83C15,81.9 15.9,81 17,81L49,81C50.1,81 51,81.9 51,83C51,84.1 50.1,85 49,85ZM74.8,83.8C74.7,84 74.6,84.3 74.4,84.4C74,84.8 73.5,85 73,85L72.6,85C72.5,85 72.3,84.9 72.2,84.9C72.1,84.9 72,84.8 71.9,84.7C71.8,84.6 71.7,84.5 71.6,84.4C71.4,84.2 71.3,84 71.2,83.8C71,83.5 71,83.3 71,83L71,82.6C71,82.5 71.1,82.3 71.1,82.2C71.1,82.1 71.2,82 71.3,81.9C71.4,81.8 71.4,81.7 71.5,81.6C72.2,80.8 73.6,80.8 74.3,81.6C74.8,82 75,82.5 75,83C75,83.3 75,83.5 74.8,83.8ZM84.8,83.8C84.7,84 84.6,84.3 84.4,84.4C84.3,84.5 84.2,84.6 84.1,84.7C84,84.8 83.9,84.8 83.8,84.9C83.7,84.9 83.6,85 83.4,85L83,85C82.5,85 82,84.8 81.6,84.4C81.4,84.2 81.3,84 81.2,83.8C81,83.5 81,83.3 81,83L81,82.6C81,82.5 81.1,82.3 81.1,82.2C81.1,82.1 81.2,82 81.3,81.9C81.4,81.8 81.4,81.7 81.5,81.6C81.6,81.5 81.7,81.4 81.8,81.4C81.9,81.3 82,81.3 82.1,81.2C82.2,81.2 82.3,81.1 82.5,81.1C83.2,81 83.8,81.2 84.3,81.6C84.4,81.7 84.5,81.8 84.5,81.9C84.6,82 84.6,82.1 84.7,82.2C84.8,82.3 84.8,82.4 84.8,82.6L84.8,83C85,83.3 85,83.5 84.8,83.8ZM30.7,71L28.8,65L71.3,65L69.4,71L30.7,71ZM26,61L74,61C76.2,61 78,59.2 78,57L78,13C78,10.8 76.2,9 74,9L26,9C23.8,9 22,10.8 22,13L22,57C22,59.2 23.8,61 26,61ZM28,17C28,15.9 28.9,15 30,15L70,15C71.1,15 72,15.9 72,17L72,53C72,54.1 71.1,55 70,55L30,55C28.9,55 28,54.1 28,53L28,17ZM68,51L32,51L32,19L68,19L68,51Z" style="fill:white;fill-rule:nonzero;"/>
    </g>
</svg>
